<svg xmlns="http://www.w3.org/2000/svg" viewBox="0 0 480 128" fill="none" role="img" aria-label="a14y.dev">
  <defs>
    <radialGradient id="a14y-lockup-glow" cx="0.5" cy="0.5" r="0.5">
      <stop offset="0%" stop-color="#b8eff7" stop-opacity="0.9"/>
      <stop offset="55%" stop-color="#4de0f0" stop-opacity="0.32"/>
      <stop offset="100%" stop-color="#4de0f0" stop-opacity="0"/>
    </radialGradient>
  </defs>

  <g stroke="#1b2763" stroke-width="2" stroke-linecap="round">
    <line x1="38" y1="64" x2="62" y2="64"/>
    <line x1="38" y1="64" x2="50" y2="43.2"/>
    <line x1="38" y1="64" x2="26" y2="43.2"/>
    <line x1="38" y1="64" x2="14" y2="64"/>
    <line x1="38" y1="64" x2="26" y2="84.8"/>
    <line x1="38" y1="64" x2="50" y2="84.8"/>
    <line x1="62" y1="64" x2="50" y2="43.2"/>
    <line x1="50" y1="43.2" x2="26" y2="43.2"/>
    <line x1="26" y1="43.2" x2="14" y2="64"/>
    <line x1="14" y1="64" x2="26" y2="84.8"/>
    <line x1="26" y1="84.8" x2="50" y2="84.8"/>
    <line x1="50" y1="84.8" x2="62" y2="64"/>
  </g>
  <g fill="#1b2763">
    <circle cx="62" cy="64" r="3.5"/>
    <circle cx="50" cy="43.2" r="3.5"/>
    <circle cx="26" cy="43.2" r="3.5"/>
    <circle cx="14" cy="64" r="3.5"/>
    <circle cx="26" cy="84.8" r="3.5"/>
    <circle cx="50" cy="84.8" r="3.5"/>
  </g>
  <circle cx="38" cy="64" r="20" fill="url(#a14y-lockup-glow)"/>
  <circle cx="38" cy="64" r="5" fill="#4de0f0"/>

  <circle cx="88" cy="62" r="26" stroke="#1b2763" stroke-width="4" fill="#ffffff"/>
  <rect x="76" y="46" width="24" height="32" rx="2" stroke="#1b2763" stroke-width="2" fill="#ffffff"/>
  <g stroke="#4de0f0" stroke-width="2.4" stroke-linecap="round">
    <line x1="80" y1="53" x2="96" y2="53"/>
    <line x1="80" y1="59" x2="96" y2="59"/>
    <line x1="80" y1="65" x2="96" y2="65"/>
    <line x1="80" y1="71" x2="92" y2="71"/>
  </g>
  <line x1="107" y1="81" x2="120" y2="94" stroke="#1b2763" stroke-width="7" stroke-linecap="round"/>
  <line x1="110" y1="84" x2="117" y2="91" stroke="#4de0f0" stroke-width="2" stroke-linecap="round"/>

  <text x="160" y="86"
    font-family="-apple-system, BlinkMacSystemFont, 'Segoe UI', Roboto, 'Helvetica Neue', Helvetica, Arial, sans-serif"
    font-size="68"
    font-weight="700"
    letter-spacing="-2"
    fill="#1b2763">a14y<tspan font-weight="500" opacity="0.75">.dev</tspan></text>
</svg>
