<svg xmlns="http://www.w3.org/2000/svg" viewBox="0 0 780 240" fill="none" role="img" aria-label="a14y.dev">
  <defs>
    <radialGradient id="a14y-lockup-core-glow" cx="0.5" cy="0.5" r="0.5">
      <stop offset="0%" stop-color="#b8eff7" stop-opacity="1"/>
      <stop offset="55%" stop-color="#4de0f0" stop-opacity="0.35"/>
      <stop offset="100%" stop-color="#4de0f0" stop-opacity="0"/>
    </radialGradient>
  </defs>

  <g stroke="#4de0f0" stroke-width="4" stroke-linecap="round" fill="none" opacity="0.9">
    <path d="M60 30 L70 20 L80 30"/>
    <path d="M70 20 L70 40"/>
  </g>

  <g stroke="#1b2763" stroke-width="3.5" stroke-linecap="round">
    <line x1="132" y1="120" x2="70" y2="120"/>
    <line x1="132" y1="120" x2="101" y2="66"/>
    <line x1="132" y1="120" x2="39" y2="66"/>
    <line x1="132" y1="120" x2="8"  y2="120"/>
    <line x1="132" y1="120" x2="39" y2="174"/>
    <line x1="132" y1="120" x2="101" y2="174"/>
    <line x1="101" y1="66"  x2="39"  y2="66"/>
    <line x1="39"  y1="66"  x2="8"   y2="120"/>
    <line x1="8"   y1="120" x2="39"  y2="174"/>
    <line x1="39"  y1="174" x2="101" y2="174"/>
    <line x1="101" y1="174" x2="132" y2="120"/>
    <line x1="101" y1="66"  x2="39"  y2="174"/>
    <line x1="39"  y1="66"  x2="101" y2="174"/>
    <line x1="101" y1="66"  x2="101" y2="174"/>
    <line x1="39"  y1="66"  x2="39"  y2="174"/>
    <line x1="8"   y1="120" x2="132" y2="120"/>
  </g>
  <g fill="#1b2763">
    <circle cx="132" cy="120" r="5.5"/>
    <circle cx="101" cy="66"  r="5.5"/>
    <circle cx="39"  cy="66"  r="5.5"/>
    <circle cx="8"   cy="120" r="5.5"/>
    <circle cx="39"  cy="174" r="5.5"/>
    <circle cx="101" cy="174" r="5.5"/>
  </g>
  <circle cx="70" cy="120" r="34" fill="url(#a14y-lockup-core-glow)"/>
  <circle cx="70" cy="120" r="8.5" fill="#4de0f0"/>

  <circle cx="170" cy="120" r="62" fill="#ffffff" stroke="#1b2763" stroke-width="7"/>
  <rect x="142" y="74" width="64" height="96" rx="3" fill="#ffffff" stroke="#1b2763" stroke-width="4"/>
  <g fill="#4de0f0">
    <rect x="150" y="86"  width="36" height="7" rx="1.5"/>
    <rect x="150" y="104" width="48" height="7" rx="1.5"/>
    <rect x="150" y="122" width="48" height="7" rx="1.5"/>
    <rect x="150" y="140" width="48" height="7" rx="1.5"/>
    <rect x="150" y="158" width="28" height="7" rx="1.5"/>
  </g>
  <rect x="198" y="80" width="8" height="84" rx="2" fill="#4de0f0" opacity="0.9"/>
  <line x1="214" y1="164" x2="260" y2="210" stroke="#1b2763" stroke-width="14" stroke-linecap="round"/>
  <line x1="220" y1="170" x2="252" y2="202" stroke="#4de0f0" stroke-width="3.5" stroke-linecap="round"/>

  <text x="300" y="170"
    font-family="-apple-system, BlinkMacSystemFont, 'Segoe UI', Roboto, 'Helvetica Neue', Helvetica, Arial, sans-serif"
    font-size="112"
    font-weight="700"
    letter-spacing="-3"
    fill="#1b2763">a14y<tspan font-weight="500" opacity="0.75">.dev</tspan></text>
</svg>
